inDegrees=yes
name=ik_S46_A06_T01
DataType=double
version=3
OpenSimVersion=4.3-2021-08-27-4bc7ad9
endheader
time	pelvis_tilt	pelvis_list	pelvis_rotation	pelvis_tx	pelvis_ty	pelvis_tz	hip_flexion_r	hip_adduction_r	hip_rotation_r	knee_angle_r	knee_angle_r_beta	ankle_angle_r	subtalar_angle_r	mtp_angle_r	hip_flexion_l	hip_adduction_l	hip_rotation_l	knee_angle_l	knee_angle_l_beta	ankle_angle_l	subtalar_angle_l	mtp_angle_l	lumbar_extension	lumbar_bending	lumbar_rotation	arm_flex_r	arm_add_r	arm_rot_r	elbow_flex_r	pro_sup_r	wrist_flex_r	wrist_dev_r	arm_flex_l	arm_add_l	arm_rot_l	elbow_flex_l	pro_sup_l	wrist_flex_l	wrist_dev_l
19.17999999999968	-9.978002037416056	-1.805078322224738	30.87697938907961	0	0.9399999999999999	0	45.82657878291805	-9.986974358180269	-10.18122563877035	53.96672509035938	0.9418970393454056	0	0	0	45.82657878291805	-9.986974358180269	-10.18122563877035	53.96672509035938	0.9418970393454056	0	0	0	-9.176150879251805	0.9618607756786581	-0.5488653846838334	15.16348969755817	-7.026804846811566	2.223694680668022	67.99927526595908	132.8157213169168	0	0	56.7213881397991	-10.12764399953429	-1.370678276811143	68.76785312493544	79.84967169515079	0	0
19.19999999999968	-9.978024757838933	-1.816580548737815	31.23098866571253	0	0.9399999999999999	0	45.8216253264458	-9.987160708864492	-10.17930906804314	53.97217511704481	0.9419921602553878	0	0	0	45.8216253264458	-9.987160708864492	-10.17930906804314	53.97217511704481	0.9419921602553878	0	0	0	-9.190451499032504	1.006886550827199	-0.7830622528512465	15.09272535723915	-7.118369308748222	2.115864044211663	68.12846847256708	132.7370198749207	0	0	56.39486554556643	-12.16896840480124	-2.902347447279434	67.75143088677646	80.24600204088613	0	0
19.21999999999968	-9.983523020315634	-1.836878905193456	31.39228205736656	0	0.9399999999999999	0	45.82143065802777	-9.987171323147065	-10.17921395335833	53.97233837091261	0.9419950095728975	0	0	0	45.82143065802777	-9.987171323147065	-10.17921395335833	53.97233837091261	0.9419950095728975	0	0	0	-9.208004320995508	1.006806805329755	-0.8617723207843494	15.10913141859845	-7.096197747767649	2.027944729856818	68.11194236300669	132.7674724684381	0	0	56.27862348798575	-12.88206979003128	-3.515223162382172	67.17984615550006	80.42059806292868	0	0
19.23999999999968	-9.977434595739089	-1.842986152340985	31.47631442136711	0	0.9399999999999999	0	45.82117604006107	-9.987185121235438	-10.17909003658521	53.97255300631677	0.9419987556673916	0	0	0	45.82117604006107	-9.987185121235438	-10.17909003658521	53.97255300631677	0.9419987556673916	0	0	0	-9.207456323970007	1.008882798419006	-0.9155184130213118	14.99046678916312	-7.136406306442032	2.014701968305904	68.21066205996208	132.7710643295854	0	0	56.31757044008503	-12.9147291132786	-3.667930429975446	66.23924549083115	80.79777442698888	0	0
19.25999999999968	-9.979272749613608	-1.866028945865004	31.60619819590736	0	0.9399999999999999	0	45.82098509659633	-9.987195515754578	-10.17899682008201	53.97271320259245	0.9420015516198516	0	0	0	45.82098509659633	-9.987195515754578	-10.17899682008201	53.97271320259245	0.9420015516198516	0	0	0	-9.22325801242936	1.004127261209484	-0.9919597196378817	15.01600027628412	-7.111706863135567	1.943727625151074	68.20445820268297	132.8008740196345	0	0	56.23000959087716	-13.54929124473883	-4.217206280848462	65.81210979403072	80.86952950184416	0	0
19.27999999999968	-9.976662935306402	-1.889031342629682	31.70702548100037	0	0.9399999999999999	0	45.82077642909758	-9.987206879408191	-10.17889491509303	53.97288811872444	0.9420046044822696	0	0	0	45.82077642909758	-9.987206879408191	-10.17889491509303	53.97288811872444	0.9420046044822696	0	0	0	-9.235457146136037	0.9979531341785995	-1.07210886283453	14.89368103134135	-7.152232567342763	1.973460500482426	68.31466384963031	132.7897203002286	0	0	56.16958007779898	-14.16042717203016	-4.682302159201305	65.38439001342712	80.95743350437587	0	0
19.29999999999968	-9.967781697251638	-1.9002988402547	31.76928207702366	0	0.9399999999999999	0	45.82049763740261	-9.987222058010349	-10.17875877077584	53.97312173343119	0.9420086818280835	0	0	0	45.82049763740261	-9.987222058010349	-10.17875877077584	53.97312173343119	0.9420086818280835	0	0	0	-9.236361706349982	0.9999185088769136	-1.159213237649675	14.84706202176392	-7.188324972722526	1.971364725421457	68.36801602444045	132.7921942703005	0	0	56.10529871116747	-14.63624408872251	-5.086091618954436	64.91728681511232	81.05738121836141	0	0
